<svg xmlns="http://www.w3.org/2000/svg" width="108" height="76" viewBox="0 0 108 76"><g transform="translate(-207 -1267)"><rect width="108" height="76" rx="4" transform="translate(207 1267)" fill="#fff"/><rect width="75" height="39" rx="2" transform="translate(222 1278)"/><rect width="69" height="33" rx="2" transform="translate(225 1281)" fill="#303030"/><path d="M1.682,0H73.737s.2.323,7.3,9.573c-16.119,3.377-66.029,3.076-86.8,0C-2.627,5.333,1.682,0,1.682,0Z" transform="translate(222 1317)"/><line x2="19" y2="35" transform="translate(261.5 1298.5)" fill="none" stroke="#ababab" stroke-linecap="round" stroke-width="3"/><path d="M263.928,1303.766s-5.571,1.43-6.573-2.278,2.606-10.723,0-13.629,9.12,6.213,8.418,10.122A18.236,18.236,0,0,1,263.928,1303.766Z" fill="#777"/><path d="M261.949,1302.828s-4.455.319-2.089-9.719" fill="none" stroke="#464646" stroke-linecap="round" stroke-width="1"/></g></svg>