<svg xmlns="http://www.w3.org/2000/svg" width="147.629" height="185.536" viewBox="0 0 147.629 185.536"><defs><style>.a{opacity:0.3;}.b{fill:#82fff7;}</style></defs><g class="a" transform="translate(92.331) rotate(70)"><path class="b" d="M83.9,35.358l1.115,17.706L73.337,53.8,72.22,36.1Zm77.164,15.564c-5.971.616-10.144-7.406-10.144-21.779-4.924-4.445-28.167,19.85-28.167,19.85l.15.323c-5.259,3.682-10.62,7.2-15.979,10.725,2.681-7.506,5.259-15.062,7.5-22.727.065-.241.122-.474.167-.706l19.774-17.828C121.188,13.423,126.228,5.991,111.85,0c-4.292,1.285-8.81,26.647-9.738,32.051a7.323,7.323,0,0,0-.72,1.668c-2.448,8.4-5.319,16.654-8.266,24.88-19.416-5.716-39.8-2.706-59.219,2.21C23.788,63.369,23.756,75.127,29.631,80.6a5.625,5.625,0,0,0,4.141,2.672c11.709,2.025,22.08,6.907,31.739,13.749,7.134,5.043,13.882-6.677,6.822-11.678a100.5,100.5,0,0,0-10.419-6.439c10.025-.947,20.026-.278,29.994,3.475,4.343,1.628,9.151-.488,11.976-3.966,9.281-6.5,18.971-12.41,28.187-19.022a7.375,7.375,0,0,0,.667-.545C143,56.247,165.711,50.443,161.062,50.922ZM17.252,66.768c5.06-10.365,10.708-10.342,18.4-10.325a44.123,44.123,0,0,0,11.04-.942L71.21,53.952,70.092,36.24l-31.741,2A8.871,8.871,0,0,0,30.993,51.1c-6.93.377-13.757,2.564-19.184,14.532A12.052,12.052,0,0,0,1.642,83.654L0,88.5l11.431,3.878.885-2.618a12.155,12.155,0,0,0,1.509-.119,4.7,4.7,0,0,0,7.744-4.431,12.038,12.038,0,0,0-4.317-18.444Z" transform="translate(0 0)"/></g></svg>